<svg xmlns="http://www.w3.org/2000/svg" width="248" height="221" fill="none" viewBox="0 0 248 221">
  <rect width="248" height="221" fill="#E1E1E1" rx="8"/>
  <g clip-path="url(#a)">
    <rect width="232" height="205" x="8" y="8" fill="#E1E1E1" rx="8"/>
    <rect width="125" height="125" x="107" y="16" fill="#fff" rx="8"/>
    <path fill="#000" d="M162.955 84.165c-.557 0-1.053-.097-1.489-.29a2.395 2.395 0 0 1-1.034-.87c-.25-.386-.375-.867-.375-1.442 0-.485.089-.892.267-1.222.178-.33.42-.595.727-.795a3.51 3.51 0 0 1 1.046-.455 7.959 7.959 0 0 1 1.238-.216c.508-.053.917-.102 1.227-.148.311-.049.536-.12.677-.216a.475.475 0 0 0 .21-.42v-.034c0-.36-.114-.638-.341-.835-.224-.197-.542-.296-.955-.296-.435 0-.782.097-1.039.29-.258.19-.428.428-.512.716l-2.238-.182c.113-.53.337-.989.67-1.375.333-.39.763-.69 1.29-.898.53-.212 1.144-.318 1.841-.318.485 0 .949.057 1.392.17.447.114.843.29 1.187.529.349.239.623.545.824.92.201.372.301.817.301 1.336V84h-2.295v-1.21h-.068c-.14.272-.328.513-.563.721a2.608 2.608 0 0 1-.846.483c-.33.114-.711.17-1.142.17Zm.693-1.67c.356 0 .67-.07.943-.21a1.68 1.68 0 0 0 .642-.58c.155-.243.233-.517.233-.824v-.927a1.28 1.28 0 0 1-.313.137 5.574 5.574 0 0 1-.437.108c-.163.03-.326.059-.489.085l-.443.063a2.989 2.989 0 0 0-.744.199c-.212.09-.377.213-.495.369a.902.902 0 0 0-.176.568c0 .33.12.581.358.756.243.17.55.255.921.255Zm9.315 1.647c-.663 0-1.263-.17-1.801-.511-.534-.345-.958-.85-1.273-1.517-.31-.67-.466-1.493-.466-2.466 0-1 .161-1.832.483-2.495.322-.666.75-1.164 1.284-1.494a3.291 3.291 0 0 1 1.767-.5c.489 0 .896.083 1.222.25.33.163.595.367.795.614.205.242.36.48.466.716h.074v-4.375h2.415V84h-2.386v-1.398h-.103a3.08 3.08 0 0 1-.483.722 2.39 2.39 0 0 1-.801.585c-.326.155-.723.233-1.193.233Zm.767-1.926c.39 0 .72-.106.989-.318.272-.216.481-.517.625-.904.147-.386.221-.839.221-1.358 0-.519-.072-.97-.216-1.352-.144-.383-.352-.678-.625-.886-.272-.209-.604-.313-.994-.313-.398 0-.733.108-1.006.324-.272.216-.479.515-.619.898-.14.382-.21.826-.21 1.33 0 .507.07.956.21 1.346.144.386.35.69.619.909.273.216.608.324 1.006.324Z"/>
    <rect width="216" height="48" x="16" y="157" fill="#fff" rx="8"/>
    <path fill="#000" d="M117.455 186.665c-.557 0-1.053-.097-1.489-.29a2.399 2.399 0 0 1-1.034-.869c-.25-.387-.375-.868-.375-1.444 0-.484.089-.892.267-1.221.178-.33.42-.595.727-.796.307-.2.655-.352 1.046-.454a8.03 8.03 0 0 1 1.238-.216c.508-.053.917-.102 1.227-.148.311-.049.536-.121.677-.216a.473.473 0 0 0 .21-.42v-.034c0-.36-.114-.638-.341-.835-.224-.197-.542-.296-.955-.296-.435 0-.782.097-1.039.29a1.334 1.334 0 0 0-.512.716l-2.238-.182c.113-.53.337-.989.67-1.375.333-.39.763-.689 1.29-.898.53-.212 1.144-.318 1.841-.318.485 0 .949.057 1.392.171a3.61 3.61 0 0 1 1.187.528c.349.239.623.545.824.92.201.372.301.817.301 1.336v5.886h-2.295v-1.21h-.068c-.14.272-.328.513-.563.721a2.592 2.592 0 0 1-.846.483c-.33.114-.711.171-1.142.171Zm.693-1.671c.356 0 .67-.07.943-.21a1.67 1.67 0 0 0 .642-.579 1.5 1.5 0 0 0 .233-.824v-.926c-.076.049-.18.094-.313.136a5.486 5.486 0 0 1-.437.108c-.163.03-.326.059-.489.085l-.443.063a3.003 3.003 0 0 0-.744.198 1.193 1.193 0 0 0-.495.37.901.901 0 0 0-.176.568c0 .329.12.581.358.756.243.17.55.255.921.255Zm9.315 1.648c-.663 0-1.263-.17-1.801-.511-.534-.345-.958-.851-1.273-1.517-.31-.671-.466-1.493-.466-2.466 0-1 .161-1.832.483-2.495.322-.666.75-1.164 1.284-1.494a3.294 3.294 0 0 1 1.767-.5c.489 0 .896.083 1.222.25.33.163.595.368.795.614.205.242.36.481.466.716h.074v-4.375h2.415V186.5h-2.386v-1.398h-.103a3.076 3.076 0 0 1-.483.722c-.204.235-.471.43-.801.585-.326.155-.723.233-1.193.233Zm.767-1.926c.39 0 .72-.106.989-.318.272-.216.481-.517.625-.904.147-.386.221-.839.221-1.358 0-.519-.072-.969-.216-1.352-.144-.382-.352-.678-.625-.886-.272-.209-.604-.313-.994-.313-.398 0-.733.108-1.006.324-.272.216-.479.515-.619.898-.14.382-.21.826-.21 1.329 0 .508.07.957.21 1.347.144.386.35.689.619.909.273.216.608.324 1.006.324Z"/>
  </g>
  <defs>
    <clipPath id="a">
      <rect width="232" height="205" x="8" y="8" fill="#fff" rx="8"/>
    </clipPath>
  </defs>
</svg>
