<svg xmlns="http://www.w3.org/2000/svg" width="248" height="116" fill="none" viewBox="0 0 248 116">
  <rect width="248" height="116" fill="#E1E1E1" rx="8"/>
  <rect width="91" height="27" x="8" y="8" fill="#fff" rx="8"/>
  <path fill="#000" d="M17.011 27V15.364h2.42v4.375h.075c.106-.235.26-.474.46-.716.204-.247.47-.451.795-.614.33-.167.739-.25 1.228-.25a3.28 3.28 0 0 1 1.761.5c.538.33.968.828 1.29 1.494.322.663.483 1.495.483 2.495 0 .973-.157 1.795-.472 2.466-.31.666-.735 1.172-1.273 1.517a3.267 3.267 0 0 1-1.795.511c-.47 0-.87-.078-1.199-.233a2.48 2.48 0 0 1-.801-.585 2.97 2.97 0 0 1-.477-.722h-.108V27H17.01Zm2.37-4.364c0 .52.072.972.216 1.358.143.387.352.688.625.904.272.212.604.318.994.318.394 0 .727-.108 1-.324.273-.22.48-.523.62-.909.143-.39.215-.84.215-1.347 0-.503-.07-.947-.21-1.33-.14-.382-.347-.681-.62-.897-.272-.216-.607-.324-1.005-.324-.394 0-.727.104-1 .313-.269.208-.476.503-.62.886-.143.383-.215.833-.215 1.352Zm11.7 4.535c-.883 0-1.646-.188-2.29-.563a3.849 3.849 0 0 1-1.483-1.58c-.348-.678-.523-1.464-.523-2.357 0-.902.175-1.69.523-2.364a3.804 3.804 0 0 1 1.483-1.58c.644-.378 1.407-.568 2.29-.568s1.644.19 2.284.568c.644.375 1.14.902 1.489 1.58.348.674.522 1.462.522 2.364 0 .893-.174 1.68-.522 2.357a3.838 3.838 0 0 1-1.489 1.58c-.64.375-1.402.563-2.284.563Zm.011-1.875c.402 0 .737-.114 1.006-.341.269-.231.472-.546.608-.944.14-.397.21-.85.21-1.358 0-.507-.07-.96-.21-1.357-.136-.398-.339-.713-.608-.944-.269-.23-.604-.346-1.006-.346-.405 0-.746.115-1.022.346-.273.231-.48.546-.62.944a4.18 4.18 0 0 0-.204 1.357c0 .508.068.96.204 1.358.14.398.347.713.62.944.276.227.617.34 1.022.34Zm8.347 1.869c-.557 0-1.053-.097-1.489-.29a2.397 2.397 0 0 1-1.034-.87c-.25-.386-.375-.867-.375-1.442 0-.485.09-.892.267-1.222.178-.33.42-.595.727-.796.307-.2.656-.352 1.046-.454a7.969 7.969 0 0 1 1.239-.216 31.4 31.4 0 0 0 1.227-.148c.31-.049.536-.12.676-.216a.474.474 0 0 0 .21-.42v-.034c0-.36-.113-.638-.34-.835-.224-.197-.542-.296-.955-.296-.436 0-.782.097-1.04.29a1.33 1.33 0 0 0-.511.716l-2.239-.182c.114-.53.337-.989.67-1.375.334-.39.764-.69 1.29-.898.53-.212 1.144-.318 1.841-.318.485 0 .949.057 1.392.17.447.114.843.29 1.188.529.348.239.623.545.824.92.2.372.3.817.3 1.336V27h-2.295v-1.21h-.068c-.14.273-.328.513-.562.721a2.605 2.605 0 0 1-.847.483c-.33.114-.71.17-1.142.17Zm.693-1.67c.356 0 .67-.07.943-.21a1.67 1.67 0 0 0 .642-.58 1.49 1.49 0 0 0 .233-.824v-.927c-.076.05-.18.095-.312.137a5.692 5.692 0 0 1-.438.108 21.7 21.7 0 0 1-.488.085l-.444.063a2.993 2.993 0 0 0-.744.198 1.19 1.19 0 0 0-.494.37.9.9 0 0 0-.176.568c0 .33.119.581.358.756.242.17.549.255.92.255Zm14.445-7.222v1.818H49.32v-1.818h5.256Zm-4.063-2.091h2.42v8.136c0 .224.035.398.103.523a.564.564 0 0 0 .284.256c.125.049.269.073.432.073.114 0 .227-.009.34-.028l.262-.051.38 1.801a6.777 6.777 0 0 1-.51.13 4.09 4.09 0 0 1-.802.097c-.583.023-1.094-.055-1.534-.233a2.141 2.141 0 0 1-1.017-.83c-.242-.374-.362-.848-.358-1.42v-8.454Zm8.128 10.983c-.557 0-1.053-.097-1.489-.29a2.397 2.397 0 0 1-1.034-.87c-.25-.386-.375-.867-.375-1.442 0-.485.09-.892.267-1.222.178-.33.42-.595.728-.796.306-.2.655-.352 1.045-.454a7.969 7.969 0 0 1 1.239-.216 31.4 31.4 0 0 0 1.227-.148c.31-.049.536-.12.676-.216a.475.475 0 0 0 .21-.42v-.034c0-.36-.113-.638-.34-.835-.224-.197-.542-.296-.955-.296-.436 0-.782.097-1.04.29-.257.19-.428.428-.511.716l-2.239-.182c.114-.53.337-.989.67-1.375.334-.39.764-.69 1.29-.898.53-.212 1.144-.318 1.841-.318.485 0 .95.057 1.392.17.447.114.843.29 1.188.529.348.239.623.545.824.92.2.372.3.817.3 1.336V27h-2.295v-1.21h-.068c-.14.273-.328.513-.562.721a2.605 2.605 0 0 1-.847.483c-.33.114-.71.17-1.142.17Zm.693-1.67c.356 0 .67-.07.943-.21a1.67 1.67 0 0 0 .642-.58 1.49 1.49 0 0 0 .233-.824v-.927a1.27 1.27 0 0 1-.312.137 5.692 5.692 0 0 1-.438.108c-.163.03-.325.059-.488.085l-.443.063a2.991 2.991 0 0 0-.745.198 1.19 1.19 0 0 0-.494.37.9.9 0 0 0-.176.568c0 .33.12.581.358.756.242.17.549.255.92.255Zm6.1 1.505v-8.727h2.346v1.523h.091c.16-.542.426-.951.801-1.228.375-.28.807-.42 1.296-.42a3.65 3.65 0 0 1 .761.085v2.148a3.157 3.157 0 0 0-.472-.091c-.2-.027-.384-.04-.55-.04-.357 0-.675.078-.955.233a1.715 1.715 0 0 0-.66.636 1.849 1.849 0 0 0-.238.944V27h-2.42Zm9.356.142c-.663 0-1.263-.17-1.8-.511-.535-.345-.96-.85-1.274-1.517-.31-.67-.466-1.493-.466-2.466 0-1 .161-1.832.483-2.495.322-.666.75-1.164 1.285-1.494a3.29 3.29 0 0 1 1.766-.5c.49 0 .896.083 1.222.25.33.163.595.367.796.614.204.242.36.48.466.716h.073v-4.375h2.415V27h-2.386v-1.398h-.102a3.125 3.125 0 0 1-.484.722 2.4 2.4 0 0 1-.8.585c-.326.155-.724.233-1.194.233Zm.767-1.926c.39 0 .72-.106.989-.318.273-.216.48-.517.625-.904.148-.386.222-.839.222-1.358 0-.519-.073-.97-.216-1.352-.144-.383-.353-.678-.625-.886-.273-.209-.605-.313-.995-.313-.398 0-.733.108-1.005.324-.273.216-.48.515-.62.898-.14.382-.21.826-.21 1.33 0 .507.07.956.21 1.346.144.386.35.69.62.909.272.216.608.324 1.005.324Zm10.166 1.954c-.897 0-1.67-.181-2.318-.545a3.736 3.736 0 0 1-1.488-1.557c-.349-.674-.523-1.471-.523-2.392 0-.898.174-1.685.523-2.363a3.864 3.864 0 0 1 1.471-1.586c.637-.378 1.383-.568 2.239-.568.576 0 1.112.093 1.608.279.5.181.935.456 1.307.823.375.368.666.83.875 1.387.208.553.312 1.2.312 1.943v.665h-7.37v-1.5h5.092c0-.349-.076-.657-.228-.927a1.628 1.628 0 0 0-.63-.63 1.8 1.8 0 0 0-.926-.233c-.368 0-.694.085-.978.256-.28.166-.5.392-.659.676a1.91 1.91 0 0 0-.244.937v1.426c0 .432.08.805.239 1.12.162.314.392.556.687.727.296.17.646.256 1.051.256.27 0 .515-.038.739-.114.223-.076.415-.19.574-.34.159-.152.28-.338.363-.558l2.239.148a3.057 3.057 0 0 1-.699 1.41c-.348.397-.8.707-1.352.93-.55.22-1.184.33-1.904.33Z"/>
  <rect width="232" height="65" x="8" y="43" fill="#1272E2" rx="8"/>
  <path fill="#fff" d="M27.704 56.182c0 1.269-.24 2.348-.721 3.238-.477.89-1.129 1.57-1.955 2.04-.822.466-1.746.7-2.772.7-1.034 0-1.962-.236-2.784-.705-.822-.47-1.472-1.15-1.95-2.04-.476-.89-.715-1.968-.715-3.233 0-1.27.239-2.349.716-3.239.477-.89 1.127-1.568 1.949-2.034.822-.47 1.75-.704 2.784-.704 1.026 0 1.95.234 2.772.704.826.466 1.478 1.144 1.955 2.034.481.89.721 1.97.721 3.239Zm-2.494 0c0-.822-.123-1.515-.37-2.08-.241-.564-.584-.992-1.027-1.284-.444-.291-.963-.437-1.557-.437-.595 0-1.114.145-1.557.437-.443.292-.788.72-1.034 1.284-.243.565-.364 1.258-.364 2.08 0 .822.121 1.515.364 2.08.246.564.59.992 1.034 1.283.443.292.962.438 1.557.438.594 0 1.113-.146 1.556-.438.444-.291.787-.72 1.029-1.284.246-.564.37-1.257.37-2.08Zm6.692-5.818V62h-2.42V50.364h2.42Zm4.428 11.8c-.557 0-1.053-.096-1.49-.289a2.397 2.397 0 0 1-1.033-.87c-.25-.386-.375-.867-.375-1.443 0-.484.089-.892.267-1.221.178-.33.42-.595.727-.796.307-.2.655-.352 1.046-.454a7.969 7.969 0 0 1 1.238-.216 31.4 31.4 0 0 0 1.227-.148c.311-.049.537-.12.677-.216a.475.475 0 0 0 .21-.42v-.034c0-.36-.114-.638-.341-.835-.223-.197-.542-.296-.955-.296-.435 0-.782.097-1.04.29-.257.19-.427.428-.51.716l-2.24-.182a3.05 3.05 0 0 1 .671-1.375c.333-.39.763-.69 1.29-.898.53-.212 1.144-.318 1.84-.318.486 0 .95.057 1.393.17.447.114.843.29 1.187.529.349.239.623.545.824.92.2.372.301.817.301 1.336V62H38.95v-1.21h-.068a2.45 2.45 0 0 1-.563.721 2.605 2.605 0 0 1-.846.483c-.33.114-.71.17-1.142.17Zm.693-1.67c.356 0 .67-.07.943-.21a1.67 1.67 0 0 0 .642-.58c.155-.242.233-.517.233-.823v-.926c-.076.049-.18.094-.313.136a5.692 5.692 0 0 1-.437.108c-.163.03-.326.059-.489.085l-.443.063a2.991 2.991 0 0 0-.744.198 1.19 1.19 0 0 0-.495.37.9.9 0 0 0-.176.568c0 .33.12.581.358.756.243.17.55.255.92.255Zm-.262-8.346 1.205-2.586h2.239l-1.733 2.586h-1.71Zm11.48 10c-.376 0-.698-.133-.967-.398a1.327 1.327 0 0 1-.398-.966c0-.371.133-.69.398-.954.27-.266.591-.398.966-.398.364 0 .682.132.955.398.272.265.409.583.409.954 0 .25-.065.48-.194.688a1.47 1.47 0 0 1-.494.494c-.204.121-.43.182-.676.182Zm0-6.114c-.376 0-.698-.133-.967-.398a1.315 1.315 0 0 1-.398-.966c0-.37.133-.687.398-.948.27-.266.591-.398.966-.398.364 0 .682.132.955.398.272.261.409.577.409.948 0 .254-.065.485-.194.694a1.42 1.42 0 0 1-.494.488c-.204.122-.43.182-.676.182Zm7.43 1.301c0 1.413-.19 2.712-.569 3.898a10.653 10.653 0 0 1-1.727 3.295h-2.313c.296-.375.57-.833.824-1.375.254-.541.476-1.132.665-1.772.19-.644.337-1.31.443-2 .106-.69.16-1.371.16-2.046 0-.898-.093-1.803-.279-2.716a13.881 13.881 0 0 0-.75-2.545c-.314-.784-.669-1.426-1.063-1.926h2.313a10.654 10.654 0 0 1 1.727 3.295c.38 1.186.569 2.483.569 3.892ZM23.323 72.71c-.046-.458-.24-.814-.585-1.068-.345-.254-.813-.38-1.404-.38-.401 0-.74.056-1.017.17a1.43 1.43 0 0 0-.636.46c-.144.197-.216.42-.216.67a.958.958 0 0 0 .13.546c.1.155.233.29.404.403.17.11.367.207.59.29.224.08.463.148.717.205l1.045.25c.508.113.974.265 1.398.454.424.19.792.423 1.102.7.31.276.551.601.722.976.174.375.263.805.267 1.29-.004.712-.186 1.33-.546 1.852-.356.52-.87.923-1.545 1.21-.67.285-1.48.427-2.426.427-.94 0-1.758-.144-2.455-.432-.693-.288-1.235-.714-1.625-1.279-.386-.568-.589-1.27-.608-2.107h2.381c.027.39.138.716.335.977.201.257.468.453.801.585a3.18 3.18 0 0 0 1.143.193c.416 0 .778-.06 1.085-.181.31-.122.55-.29.721-.506.17-.216.256-.464.256-.745a.967.967 0 0 0-.233-.659c-.151-.178-.375-.33-.67-.454a6.819 6.819 0 0 0-1.074-.341l-1.267-.318c-.981-.239-1.756-.612-2.324-1.12-.568-.507-.85-1.19-.847-2.05-.004-.705.184-1.32.563-1.847.382-.527.907-.938 1.573-1.233.667-.296 1.425-.444 2.273-.444.864 0 1.618.148 2.262.444.647.295 1.151.706 1.511 1.233.36.526.546 1.136.557 1.83h-2.358Zm8.104 8.46c-.898 0-1.67-.181-2.319-.545a3.736 3.736 0 0 1-1.488-1.557c-.349-.674-.523-1.471-.523-2.392 0-.898.174-1.686.523-2.364a3.865 3.865 0 0 1 1.471-1.585c.637-.379 1.383-.568 2.239-.568.576 0 1.112.093 1.608.278.5.182.935.457 1.307.824.375.368.666.83.875 1.387.208.553.312 1.2.312 1.943v.665h-7.37v-1.5h5.092c0-.349-.076-.657-.227-.927a1.629 1.629 0 0 0-.631-.63 1.8 1.8 0 0 0-.926-.233c-.368 0-.693.085-.977.256a1.8 1.8 0 0 0-.66.676c-.159.28-.24.593-.244.937v1.426c0 .432.08.805.239 1.12.163.314.392.556.687.727.296.17.646.256 1.051.256.27 0 .516-.038.739-.114.223-.076.415-.19.574-.34.159-.152.28-.338.364-.558l2.238.148a3.056 3.056 0 0 1-.699 1.41c-.348.397-.799.707-1.352.93-.55.22-1.184.33-1.903.33Zm9.517 3.284c-.785 0-1.457-.107-2.017-.323-.557-.212-1-.502-1.33-.87a2.674 2.674 0 0 1-.642-1.238l2.239-.301c.068.174.176.337.324.488.147.152.342.273.585.364.246.095.545.142.897.142.527 0 .96-.129 1.302-.386.344-.254.517-.68.517-1.279v-1.597h-.103a2.298 2.298 0 0 1-.477.688 2.406 2.406 0 0 1-.818.529c-.333.136-.731.204-1.193.204a3.583 3.583 0 0 1-1.79-.454c-.534-.307-.96-.775-1.279-1.404-.314-.632-.471-1.432-.471-2.398 0-.988.16-1.814.483-2.477.322-.663.75-1.159 1.284-1.489a3.319 3.319 0 0 1 1.767-.494c.489 0 .898.083 1.227.25.33.163.595.367.796.614.204.242.361.48.471.716h.091v-1.466h2.404v8.812c0 .743-.182 1.364-.546 1.864-.363.5-.867.875-1.511 1.125-.64.254-1.377.38-2.21.38Zm.05-5.397c.39 0 .72-.097.99-.29.272-.197.48-.477.624-.84.148-.368.222-.808.222-1.319 0-.511-.072-.955-.216-1.33-.144-.378-.352-.672-.625-.88-.273-.209-.604-.313-.994-.313-.398 0-.733.108-1.006.324-.273.212-.48.508-.62.886-.14.38-.21.817-.21 1.313 0 .504.07.94.21 1.307.145.363.351.646.62.846.273.197.608.296 1.006.296Zm11.74-1.773v-5.011h2.42V81H52.83v-1.585h-.09a2.578 2.578 0 0 1-.984 1.233c-.454.31-1.01.466-1.665.466-.583 0-1.096-.133-1.54-.398a2.734 2.734 0 0 1-1.04-1.13c-.245-.49-.37-1.075-.374-1.757v-5.556h2.42v5.125c.004.515.142.922.415 1.221.273.3.638.45 1.097.45.291 0 .564-.067.818-.2a1.56 1.56 0 0 0 .613-.602c.16-.265.237-.593.233-.983Zm8.333 3.886c-.898 0-1.67-.181-2.318-.545a3.735 3.735 0 0 1-1.489-1.557c-.348-.674-.522-1.471-.522-2.392 0-.898.174-1.686.522-2.364a3.863 3.863 0 0 1 1.472-1.585c.636-.379 1.383-.568 2.239-.568.575 0 1.111.093 1.608.278.5.182.935.457 1.306.824.375.368.667.83.875 1.387.209.553.313 1.2.313 1.943v.665h-7.37v-1.5h5.091c0-.349-.075-.657-.227-.927a1.628 1.628 0 0 0-.63-.63 1.799 1.799 0 0 0-.927-.233c-.367 0-.693.085-.977.256-.28.166-.5.392-.659.676-.16.28-.24.593-.244.937v1.426c0 .432.08.805.238 1.12.163.314.392.556.688.727.295.17.646.256 1.051.256.269 0 .515-.038.739-.114.223-.076.414-.19.573-.34.16-.152.28-.338.364-.558l2.239.148a3.057 3.057 0 0 1-.7 1.41c-.348.397-.798.707-1.351.93-.55.22-1.184.33-1.904.33Zm14.885-3.886v-5.011h2.42V81H76.05v-1.585h-.091a2.577 2.577 0 0 1-.983 1.233c-.455.31-1.01.466-1.665.466-.583 0-1.097-.133-1.54-.398a2.734 2.734 0 0 1-1.04-1.13c-.246-.49-.37-1.075-.374-1.757v-5.556h2.42v5.125c.004.515.142.922.415 1.221.273.3.638.45 1.096.45.292 0 .565-.067.819-.2a1.56 1.56 0 0 0 .613-.602c.16-.265.237-.593.233-.983ZM80.31 81v-8.727h2.306v1.54h.103a2.42 2.42 0 0 1 .909-1.21c.424-.296.932-.444 1.523-.444.598 0 1.108.15 1.528.449.42.295.7.697.84 1.204h.092c.178-.5.5-.9.966-1.198.47-.303 1.024-.455 1.665-.455.814 0 1.475.26 1.982.778.512.516.767 1.247.767 2.194V81h-2.414v-5.392c0-.485-.13-.849-.387-1.091s-.58-.364-.966-.364c-.439 0-.782.14-1.028.42-.246.277-.37.643-.37 1.098V81H85.48v-5.443c0-.428-.123-.77-.37-1.023-.242-.254-.562-.38-.96-.38-.268 0-.51.068-.727.204-.212.132-.38.32-.505.563a1.788 1.788 0 0 0-.188.84V81h-2.42Zm17.082.165c-.557 0-1.053-.097-1.489-.29a2.397 2.397 0 0 1-1.034-.87c-.25-.386-.375-.867-.375-1.442 0-.485.09-.892.267-1.222.178-.33.42-.595.728-.795a3.505 3.505 0 0 1 1.045-.455 7.969 7.969 0 0 1 1.239-.216A31.4 31.4 0 0 0 99 75.727c.31-.049.536-.12.676-.216a.475.475 0 0 0 .21-.42v-.034c0-.36-.113-.638-.34-.835-.224-.197-.542-.296-.955-.296-.436 0-.782.097-1.04.29-.257.19-.428.428-.511.716l-2.24-.182c.114-.53.337-.989.67-1.375.334-.39.764-.69 1.29-.898.53-.212 1.144-.318 1.841-.318.485 0 .95.057 1.392.17.447.114.843.29 1.188.529.348.239.623.545.824.92.2.372.301.817.301 1.336V81h-2.296v-1.21h-.068c-.14.272-.328.513-.562.721a2.605 2.605 0 0 1-.847.483c-.33.114-.71.17-1.142.17Zm.693-1.67c.356 0 .67-.07.943-.21a1.67 1.67 0 0 0 .642-.58 1.49 1.49 0 0 0 .233-.824v-.927a1.27 1.27 0 0 1-.312.137 5.692 5.692 0 0 1-.438.108c-.163.03-.325.059-.488.085l-.443.063a2.991 2.991 0 0 0-.745.199 1.19 1.19 0 0 0-.494.369.9.9 0 0 0-.176.568c0 .33.12.581.358.756.242.17.549.255.92.255Zm12.223-10.131V81h-2.42V69.364h2.42ZM112.247 81v-8.727h2.421V81h-2.421Zm1.216-9.852c-.36 0-.668-.12-.926-.358a1.16 1.16 0 0 1-.381-.87c0-.333.127-.619.381-.858.258-.242.566-.363.926-.363.36 0 .667.121.921.364.257.238.386.524.386.858 0 .337-.129.626-.386.869a1.297 1.297 0 0 1-.921.358Zm10.405 3.613-2.216.137a1.146 1.146 0 0 0-.244-.512 1.297 1.297 0 0 0-.495-.369 1.675 1.675 0 0 0-.721-.142c-.375 0-.692.08-.949.239-.258.155-.386.363-.386.625 0 .208.083.384.25.528.166.144.452.26.857.347l1.58.318c.849.174 1.481.454 1.898.84.416.387.625.895.625 1.523a2.38 2.38 0 0 1-.506 1.506c-.333.432-.792.77-1.375 1.011-.579.24-1.248.359-2.006.359-1.155 0-2.075-.241-2.761-.722a2.813 2.813 0 0 1-1.199-1.977l2.381-.125c.072.352.246.62.523.806.276.182.63.273 1.062.273.424 0 .765-.081 1.023-.244.261-.167.394-.38.398-.642a.669.669 0 0 0-.279-.54c-.182-.144-.462-.254-.841-.33l-1.511-.3c-.852-.171-1.487-.467-1.904-.887-.412-.42-.619-.957-.619-1.608 0-.56.152-1.044.455-1.449.306-.405.736-.718 1.289-.937.557-.22 1.209-.33 1.955-.33 1.102 0 1.97.233 2.602.699.637.466 1.008 1.1 1.114 1.903Zm6.365-2.488v1.818h-5.256v-1.818h5.256Zm-4.063-2.091h2.421v8.136c0 .224.034.398.102.523a.564.564 0 0 0 .284.256c.125.049.269.074.432.074.114 0 .227-.01.341-.029l.261-.051.381 1.801a6.822 6.822 0 0 1-.511.13c-.22.054-.487.086-.801.097-.584.023-1.095-.055-1.535-.233a2.147 2.147 0 0 1-1.017-.83c-.242-.374-.361-.848-.358-1.42v-8.454Zm8.128 10.983c-.557 0-1.053-.097-1.488-.29a2.39 2.39 0 0 1-1.034-.87c-.25-.386-.375-.867-.375-1.442 0-.485.089-.892.267-1.222.178-.33.42-.595.727-.795a3.516 3.516 0 0 1 1.045-.455 7.972 7.972 0 0 1 1.239-.216c.508-.053.917-.102 1.227-.148.311-.049.536-.12.676-.216a.473.473 0 0 0 .211-.42v-.034c0-.36-.114-.638-.341-.835-.224-.197-.542-.296-.955-.296-.435 0-.782.097-1.04.29-.257.19-.428.428-.511.716l-2.239-.182a3.05 3.05 0 0 1 .671-1.375c.333-.39.763-.69 1.29-.898.53-.212 1.144-.318 1.841-.318.484 0 .948.057 1.392.17.447.114.842.29 1.187.529.349.239.623.545.824.92.201.372.301.817.301 1.336V81h-2.295v-1.21h-.069c-.14.272-.327.513-.562.721a2.603 2.603 0 0 1-.847.483c-.329.114-.71.17-1.142.17Zm.693-1.67c.357 0 .671-.07.944-.21a1.68 1.68 0 0 0 .642-.58c.155-.243.233-.517.233-.824v-.927a1.28 1.28 0 0 1-.313.137 5.688 5.688 0 0 1-.437.108c-.163.03-.326.059-.489.085l-.443.063a2.989 2.989 0 0 0-.744.199 1.19 1.19 0 0 0-.495.369.902.902 0 0 0-.176.568c0 .33.119.581.358.756.242.17.549.255.92.255Zm13.019 1.647c-.663 0-1.263-.17-1.801-.511-.534-.345-.959-.85-1.273-1.517-.311-.67-.466-1.493-.466-2.466 0-1 .161-1.832.483-2.495.322-.666.75-1.164 1.284-1.494a3.291 3.291 0 0 1 1.767-.5c.489 0 .896.083 1.222.25.329.163.595.367.795.614.205.242.36.48.466.716h.074v-4.375h2.415V81h-2.387v-1.398h-.102a3.08 3.08 0 0 1-.483.722 2.39 2.39 0 0 1-.801.585c-.326.155-.723.233-1.193.233Zm.767-1.926c.39 0 .72-.106.989-.318.272-.216.481-.517.625-.904.147-.386.221-.839.221-1.358 0-.519-.072-.97-.216-1.352-.144-.383-.352-.678-.625-.886-.272-.209-.604-.313-.994-.313-.398 0-.733.108-1.006.324-.272.216-.479.515-.619.898-.14.382-.21.826-.21 1.33 0 .507.07.956.21 1.346.144.386.35.69.619.909.273.216.608.324 1.006.324Zm10.132 1.955c-.882 0-1.646-.188-2.29-.563a3.854 3.854 0 0 1-1.483-1.58c-.348-.678-.522-1.464-.522-2.358 0-.901.174-1.689.522-2.363a3.808 3.808 0 0 1 1.483-1.58c.644-.379 1.408-.568 2.29-.568.883 0 1.644.19 2.284.568.644.375 1.14.902 1.489 1.58.348.674.523 1.462.523 2.364 0 .893-.175 1.68-.523 2.357a3.842 3.842 0 0 1-1.489 1.58c-.64.375-1.401.563-2.284.563Zm.011-1.876c.402 0 .737-.113 1.006-.34.269-.231.472-.546.608-.944.14-.397.21-.85.21-1.358 0-.507-.07-.96-.21-1.358-.136-.397-.339-.712-.608-.943-.269-.23-.604-.346-1.006-.346-.405 0-.746.115-1.022.346-.273.231-.479.546-.62.944a4.18 4.18 0 0 0-.204 1.357c0 .508.068.96.204 1.358.141.398.347.713.62.944.276.227.617.34 1.022.34Zm13.12-4.534-2.216.137a1.146 1.146 0 0 0-.244-.512 1.297 1.297 0 0 0-.495-.369 1.678 1.678 0 0 0-.721-.142c-.375 0-.692.08-.949.239-.258.155-.387.363-.387.625 0 .208.084.384.25.528.167.144.453.26.858.347l1.58.318c.848.174 1.481.454 1.898.84.416.387.625.895.625 1.523a2.38 2.38 0 0 1-.506 1.506c-.333.432-.792.77-1.375 1.011-.58.24-1.248.359-2.006.359-1.155 0-2.075-.241-2.761-.722a2.81 2.81 0 0 1-1.199-1.977l2.381-.125c.072.352.246.62.522.806.277.182.631.273 1.063.273.424 0 .765-.081 1.023-.244.261-.167.394-.38.397-.642a.665.665 0 0 0-.278-.54c-.182-.144-.462-.254-.841-.33l-1.511-.3c-.853-.171-1.487-.467-1.904-.887-.413-.42-.619-.957-.619-1.608 0-.56.152-1.044.455-1.449.306-.405.736-.718 1.289-.937.557-.22 1.209-.33 1.955-.33 1.102 0 1.97.233 2.602.699.637.466 1.008 1.1 1.114 1.903ZM19.386 94.955V100h-2.42v-8.727h2.307v1.54h.102a2.43 2.43 0 0 1 .972-1.205c.454-.3 1.005-.449 1.653-.449.606 0 1.134.133 1.585.398.451.265.801.644 1.051 1.136.25.489.375 1.072.375 1.75V100h-2.42v-5.125c.004-.534-.133-.95-.41-1.25-.276-.303-.656-.454-1.141-.454-.326 0-.614.07-.864.21-.246.14-.44.344-.58.613-.136.266-.206.585-.21.96Zm11.476 5.215c-.882 0-1.646-.187-2.29-.562a3.85 3.85 0 0 1-1.482-1.58c-.349-.678-.523-1.464-.523-2.358 0-.901.174-1.689.523-2.363a3.804 3.804 0 0 1 1.482-1.58c.644-.379 1.408-.568 2.29-.568.883 0 1.644.19 2.284.568.644.375 1.14.902 1.489 1.58.348.674.523 1.462.523 2.364 0 .893-.175 1.68-.523 2.357a3.838 3.838 0 0 1-1.489 1.58c-.64.375-1.401.562-2.284.562Zm.012-1.874c.401 0 .736-.114 1.005-.342.27-.23.472-.545.608-.943.14-.397.21-.85.21-1.358 0-.507-.07-.96-.21-1.358-.136-.397-.339-.712-.608-.943-.269-.23-.604-.346-1.005-.346-.406 0-.747.115-1.023.346-.273.231-.48.546-.62.944a4.18 4.18 0 0 0-.204 1.357c0 .508.068.96.204 1.358.14.398.347.713.62.944.276.227.617.34 1.023.34Zm13.119-4.535-2.216.137c-.038-.19-.12-.36-.244-.512a1.298 1.298 0 0 0-.495-.369 1.68 1.68 0 0 0-.721-.142c-.375 0-.691.08-.95.239-.257.155-.386.363-.386.625 0 .208.084.384.25.528.167.144.453.26.858.347l1.58.318c.849.174 1.481.454 1.898.84.416.387.625.895.625 1.523a2.38 2.38 0 0 1-.506 1.506c-.333.432-.792.77-1.375 1.011-.58.239-1.248.358-2.006.358-1.155 0-2.075-.24-2.761-.721a2.812 2.812 0 0 1-1.199-1.977l2.38-.125c.073.352.247.62.524.806.276.182.63.273 1.062.273.424 0 .765-.081 1.023-.244.261-.167.394-.38.397-.642a.668.668 0 0 0-.278-.54c-.182-.144-.462-.254-.84-.33l-1.512-.3c-.852-.171-1.487-.467-1.904-.887-.412-.42-.619-.957-.619-1.608 0-.56.152-1.044.455-1.449.306-.405.736-.718 1.29-.937.556-.22 1.208-.33 1.954-.33 1.102 0 1.97.233 2.602.699.637.466 1.008 1.1 1.114 1.903Zm8.984 0-2.216.137a1.148 1.148 0 0 0-.244-.512 1.298 1.298 0 0 0-.494-.369 1.68 1.68 0 0 0-.722-.142c-.375 0-.691.08-.949.239-.257.155-.386.363-.386.625 0 .208.083.384.25.528.167.144.453.26.858.347l1.58.318c.848.174 1.48.454 1.897.84.417.387.625.895.625 1.523 0 .572-.168 1.074-.506 1.506-.333.432-.791.77-1.375 1.011-.58.239-1.248.358-2.005.358-1.155 0-2.076-.24-2.762-.721a2.812 2.812 0 0 1-1.198-1.977l2.38-.125c.072.352.246.62.523.806.277.182.63.273 1.063.273.424 0 .765-.081 1.022-.244.262-.167.394-.38.398-.642a.668.668 0 0 0-.279-.54c-.181-.144-.462-.254-.84-.33l-1.512-.3c-.852-.171-1.486-.467-1.903-.887-.413-.42-.62-.957-.62-1.608 0-.56.152-1.044.455-1.449.307-.405.737-.718 1.29-.937.557-.22 1.208-.33 1.954-.33 1.103 0 1.97.233 2.603.699.636.466 1.007 1.1 1.113 1.903Zm5.667 6.409c-.883 0-1.646-.187-2.29-.562a3.849 3.849 0 0 1-1.483-1.58c-.349-.678-.523-1.464-.523-2.358 0-.901.174-1.689.523-2.363a3.804 3.804 0 0 1 1.483-1.58c.644-.379 1.407-.568 2.29-.568.882 0 1.643.19 2.284.568a3.79 3.79 0 0 1 1.488 1.58c.349.674.523 1.462.523 2.364 0 .893-.174 1.68-.523 2.357a3.838 3.838 0 0 1-1.488 1.58c-.64.375-1.402.562-2.284.562Zm.01-1.874c.402 0 .738-.114 1.006-.342.27-.23.472-.545.609-.943.14-.397.21-.85.21-1.358 0-.507-.07-.96-.21-1.358-.137-.397-.34-.712-.608-.943-.27-.23-.605-.346-1.006-.346-.406 0-.746.115-1.023.346-.273.231-.48.546-.62.944a4.18 4.18 0 0 0-.204 1.357c0 .508.068.96.205 1.358.14.398.346.713.62.944.276.227.616.34 1.022.34Zm13.12-4.535-2.216.137c-.038-.19-.12-.36-.244-.512a1.298 1.298 0 0 0-.494-.369 1.68 1.68 0 0 0-.722-.142c-.375 0-.691.08-.949.239-.257.155-.386.363-.386.625 0 .208.083.384.25.528.166.144.452.26.858.347l1.58.318c.848.174 1.48.454 1.897.84.417.387.625.895.625 1.523 0 .572-.168 1.074-.506 1.506-.333.432-.791.77-1.375 1.011-.58.239-1.248.358-2.005.358-1.156 0-2.076-.24-2.762-.721a2.812 2.812 0 0 1-1.199-1.977l2.381-.125c.072.352.246.62.523.806.276.182.63.273 1.062.273.425 0 .766-.081 1.023-.244.261-.167.394-.38.398-.642a.668.668 0 0 0-.279-.54c-.181-.144-.462-.254-.84-.33l-1.512-.3c-.852-.171-1.487-.467-1.903-.887-.413-.42-.62-.957-.62-1.608 0-.56.152-1.044.455-1.449.307-.405.737-.718 1.29-.937.556-.22 1.208-.33 1.954-.33 1.102 0 1.97.233 2.602.699.637.466 1.008 1.1 1.114 1.903Zm12.688 0-2.216.137a1.15 1.15 0 0 0-.245-.512 1.298 1.298 0 0 0-.494-.369 1.68 1.68 0 0 0-.722-.142c-.374 0-.69.08-.948.239-.258.155-.387.363-.387.625 0 .208.084.384.25.528.167.144.453.26.858.347l1.58.318c.848.174 1.48.454 1.897.84.417.387.626.895.626 1.523a2.38 2.38 0 0 1-.506 1.506c-.334.432-.792.77-1.375 1.011-.58.239-1.248.358-2.006.358-1.155 0-2.076-.24-2.761-.721a2.812 2.812 0 0 1-1.2-1.977l2.382-.125c.072.352.246.62.522.806.277.182.631.273 1.063.273.424 0 .765-.081 1.023-.244.26-.167.394-.38.397-.642a.668.668 0 0 0-.278-.54c-.182-.144-.462-.254-.841-.33l-1.511-.3c-.853-.171-1.487-.467-1.904-.887-.413-.42-.62-.957-.62-1.608 0-.56.152-1.044.455-1.449.307-.405.737-.718 1.29-.937.557-.22 1.209-.33 1.955-.33 1.102 0 1.97.233 2.602.699.636.466 1.008 1.1 1.114 1.903Zm5.7 6.409c-.898 0-1.67-.181-2.318-.545a3.736 3.736 0 0 1-1.489-1.557c-.348-.674-.523-1.471-.523-2.392 0-.898.175-1.686.523-2.364a3.864 3.864 0 0 1 1.472-1.585c.636-.379 1.382-.568 2.238-.568.576 0 1.112.093 1.608.278.5.182.936.457 1.307.824.375.368.667.83.875 1.387.208.553.313 1.2.313 1.943v.665h-7.37v-1.5h5.091c0-.349-.076-.657-.227-.927a1.627 1.627 0 0 0-.63-.63 1.798 1.798 0 0 0-.927-.233c-.367 0-.693.085-.977.256a1.8 1.8 0 0 0-.66.676c-.158.28-.24.593-.244.937v1.426c0 .432.08.805.24 1.12.162.314.391.556.687.727.295.17.645.256 1.05.256.27 0 .516-.038.74-.114.223-.076.414-.19.573-.34.16-.152.28-.338.364-.558l2.239.148a3.057 3.057 0 0 1-.7 1.41c-.348.397-.799.707-1.352.93-.549.221-1.183.33-1.903.33Zm5.585-.17v-8.727h2.347v1.523h.09c.16-.542.427-.951.802-1.228.375-.28.807-.42 1.295-.42a3.65 3.65 0 0 1 .762.085v2.148a3.17 3.17 0 0 0-.472-.091 4.236 4.236 0 0 0-.551-.04c-.356 0-.674.078-.955.233a1.715 1.715 0 0 0-.659.636 1.838 1.838 0 0 0-.238.944V100h-2.42Zm14.949-8.727L107.645 100h-2.727l-3.052-8.727h2.557l1.813 6.244h.091l1.807-6.244h2.562Zm1.239 8.727v-8.727h2.42V100h-2.42Zm1.216-9.852c-.36 0-.669-.12-.927-.358a1.163 1.163 0 0 1-.38-.87c0-.333.127-.619.38-.858.258-.242.567-.363.927-.363.359 0 .666.121.92.364.258.238.386.524.386.858 0 .337-.128.626-.386.869a1.296 1.296 0 0 1-.92.358Zm7.086 10.022c-.894 0-1.663-.189-2.307-.568a3.843 3.843 0 0 1-1.477-1.59c-.341-.679-.511-1.459-.511-2.341 0-.895.172-1.679.517-2.353a3.838 3.838 0 0 1 1.483-1.585c.64-.383 1.401-.574 2.284-.574.761 0 1.428.138 2 .415a3.347 3.347 0 0 1 1.358 1.165c.333.5.517 1.087.551 1.761h-2.284c-.065-.436-.235-.786-.512-1.051-.272-.27-.63-.403-1.073-.403-.375 0-.703.102-.983.306-.277.201-.493.495-.648.881-.155.386-.233.854-.233 1.403 0 .557.076 1.03.227 1.42.156.391.373.688.654.893.28.204.608.307.983.307.276 0 .524-.057.744-.17.223-.114.407-.28.551-.495.148-.22.244-.483.29-.79h2.284c-.038.667-.22 1.254-.546 1.761a3.29 3.29 0 0 1-1.335 1.182c-.568.284-1.24.426-2.017.426Zm-.568-.216h1.114l-.091.495c.39.06.708.206.954.437.25.231.377.546.381.944.004.564-.258 1.013-.784 1.346-.527.337-1.265.506-2.216.506l-.023-1.08c.478 0 .851-.058 1.12-.176.272-.113.414-.292.426-.534a.57.57 0 0 0-.267-.528c-.186-.122-.476-.207-.87-.256l.256-1.154Zm9.959.216c-.883 0-1.646-.187-2.29-.562a3.854 3.854 0 0 1-1.483-1.58c-.348-.678-.523-1.464-.523-2.358 0-.901.175-1.689.523-2.363a3.808 3.808 0 0 1 1.483-1.58c.644-.379 1.407-.568 2.29-.568.882 0 1.644.19 2.284.568.644.375 1.14.902 1.489 1.58.348.674.522 1.462.522 2.364 0 .893-.174 1.68-.522 2.357a3.842 3.842 0 0 1-1.489 1.58c-.64.375-1.402.562-2.284.562Zm.011-1.874c.402 0 .737-.114 1.006-.342.269-.23.471-.545.608-.943.14-.397.21-.85.21-1.358 0-.507-.07-.96-.21-1.358-.137-.397-.339-.712-.608-.943-.269-.23-.604-.346-1.006-.346-.405 0-.746.115-1.023.346-.272.231-.479.546-.619.944a4.18 4.18 0 0 0-.204 1.357c0 .508.068.96.204 1.358.14.398.347.713.619.944.277.227.618.34 1.023.34Zm13.12-4.535-2.216.137a1.15 1.15 0 0 0-.245-.512 1.293 1.293 0 0 0-.494-.369 1.68 1.68 0 0 0-.722-.142c-.375 0-.691.08-.948.239-.258.155-.387.363-.387.625 0 .208.083.384.25.528.167.144.453.26.858.347l1.58.318c.848.174 1.481.454 1.897.84.417.387.625.895.625 1.523 0 .572-.168 1.074-.505 1.506-.334.432-.792.77-1.375 1.011-.58.239-1.248.358-2.006.358-1.155 0-2.076-.24-2.761-.721a2.81 2.81 0 0 1-1.199-1.977l2.38-.125c.072.352.247.62.523.806.277.182.631.273 1.063.273.424 0 .765-.081 1.022-.244.262-.167.394-.38.398-.642a.668.668 0 0 0-.278-.54c-.182-.144-.462-.254-.841-.33l-1.512-.3c-.852-.171-1.486-.467-1.903-.887-.413-.42-.619-.957-.619-1.608 0-.56.151-1.044.454-1.449.307-.405.737-.718 1.29-.937.557-.22 1.208-.33 1.955-.33 1.102 0 1.969.233 2.602.699.636.466 1.007 1.1 1.114 1.903Z"/>
</svg>
