<svg xmlns="http://www.w3.org/2000/svg" width="296" height="98" fill="none" viewBox="0 0 296 98">
  <g filter="url(#a)">
    <rect width="287" height="90" x="4.5" fill="#E1E1E1" rx="8"/>
    <g clip-path="url(#b)">
      <path fill="#000" d="M29.563 21.546V39h-3.69V25.048h-.102l-3.998 2.506v-3.273l4.322-2.735h3.468Zm10.992 17.837c-1.465-.005-2.727-.366-3.784-1.082-1.05-.716-1.86-1.753-2.429-3.11-.562-1.359-.84-2.992-.835-4.901 0-1.904.281-3.526.844-4.867.568-1.34 1.378-2.36 2.429-3.06 1.057-.704 2.315-1.056 3.775-1.056s2.716.352 3.767 1.057c1.057.704 1.87 1.727 2.438 3.068.568 1.335.85 2.954.844 4.858 0 1.915-.284 3.55-.853 4.909-.562 1.358-1.369 2.395-2.42 3.11-1.051.717-2.31 1.075-3.776 1.075Zm0-3.06c1 0 1.799-.502 2.395-1.508.597-1.005.892-2.514.887-4.525 0-1.324-.137-2.426-.41-3.307-.267-.88-.647-1.543-1.142-1.986a2.49 2.49 0 0 0-1.73-.665c-.994 0-1.79.497-2.386 1.492-.597.994-.898 2.483-.903 4.466 0 1.34.133 2.46.4 3.358.273.892.656 1.562 1.15 2.011a2.521 2.521 0 0 0 1.74.665Zm19.234-.596v-.92c0-.699.148-1.341.443-1.926a3.514 3.514 0 0 1 1.304-1.415c.574-.358 1.273-.537 2.097-.537.835 0 1.537.176 2.105.528a3.378 3.378 0 0 1 1.295 1.415c.296.585.444 1.23.444 1.935v.92c0 .7-.148 1.344-.444 1.935a3.45 3.45 0 0 1-1.304 1.406c-.573.358-1.272.537-2.096.537-.835 0-1.537-.179-2.105-.537a3.46 3.46 0 0 1-1.296-1.406 4.266 4.266 0 0 1-.443-1.935Zm2.48-.92v.92c0 .404.097.784.29 1.142.199.358.557.537 1.074.537s.87-.176 1.057-.528c.193-.352.29-.736.29-1.15v-.921a2.54 2.54 0 0 0-.273-1.16c-.182-.357-.54-.536-1.074-.536-.512 0-.867.179-1.066.537a2.348 2.348 0 0 0-.298 1.159Zm-11.437-9.068v-.92c0-.705.15-1.35.451-1.935a3.512 3.512 0 0 1 1.304-1.415c.574-.353 1.267-.529 2.08-.529.84 0 1.545.176 2.114.529.568.352 1 .824 1.295 1.415.295.585.443 1.23.443 1.934v.92c0 .705-.15 1.35-.451 1.935a3.45 3.45 0 0 1-1.304 1.407c-.569.346-1.268.52-2.097.52-.83 0-1.531-.177-2.105-.529a3.54 3.54 0 0 1-1.296-1.406 4.282 4.282 0 0 1-.434-1.926Zm2.497-.92v.92c0 .414.096.798.29 1.15.199.352.548.529 1.048.529.523 0 .878-.177 1.065-.529.193-.352.29-.736.29-1.15v-.92c0-.416-.09-.802-.273-1.16-.181-.358-.542-.537-1.082-.537-.506 0-.855.182-1.048.546-.194.363-.29.747-.29 1.15ZM51.957 39l12-17.454h2.233L54.19 39h-2.233ZM39.13 59.273c0 1.903-.36 3.522-1.082 4.858-.716 1.335-1.694 2.355-2.932 3.06-1.233.698-2.62 1.048-4.16 1.048-1.55 0-2.942-.353-4.175-1.057-1.233-.705-2.208-1.725-2.924-3.06-.716-1.335-1.074-2.952-1.074-4.85 0-1.903.358-3.522 1.074-4.857.716-1.335 1.69-2.352 2.924-3.051 1.233-.705 2.625-1.057 4.176-1.057 1.54 0 2.926.352 4.159 1.057 1.239.699 2.216 1.716 2.932 3.05.721 1.336 1.082 2.955 1.082 4.859Zm-3.741 0c0-1.233-.185-2.273-.554-3.12-.364-.846-.878-1.488-1.543-1.926-.665-.437-1.443-.656-2.335-.656-.892 0-1.67.219-2.335.656-.665.438-1.182 1.08-1.552 1.926-.363.847-.545 1.887-.545 3.12s.182 2.272.545 3.119c.37.847.887 1.489 1.551 1.926.665.438 1.444.656 2.336.656.892 0 1.67-.218 2.335-.656.665-.437 1.179-1.08 1.543-1.926.369-.847.554-1.886.554-3.12ZM41.865 68V50.545H53.42v3.043h-7.866v4.16h7.1v3.042h-7.1V68h-3.69Zm14.039 0V50.545H67.46v3.043h-7.867v4.16h7.1v3.042h-7.1V68h-3.69Z"/>
    </g>
    <path fill="#000" d="M102.511 31V19.364h7.841v2.028h-5.38v2.773h4.977v2.028h-4.977v2.779h5.403V31h-7.864Zm15.189-5.739v1.92h-5.307v-1.92h5.307ZM119.763 31v-8.727h2.307v1.54h.102c.182-.512.485-.915.909-1.21.424-.296.932-.444 1.523-.444.598 0 1.108.15 1.528.449.421.295.701.697.841 1.204h.091c.178-.5.5-.9.966-1.198.47-.303 1.024-.455 1.665-.455.814 0 1.475.26 1.983.779.511.515.767 1.246.767 2.193V31h-2.415v-5.392c0-.485-.129-.849-.387-1.091-.257-.242-.579-.364-.965-.364-.44 0-.783.14-1.029.42-.246.277-.369.643-.369 1.098V31h-2.347v-5.443c0-.428-.123-.77-.369-1.023-.243-.254-.563-.38-.96-.38-.269 0-.512.068-.728.204-.212.133-.38.32-.505.563a1.788 1.788 0 0 0-.188.84V31h-2.42Zm17.082.165c-.557 0-1.053-.097-1.488-.29a2.398 2.398 0 0 1-1.035-.87c-.25-.386-.375-.867-.375-1.442 0-.485.089-.892.267-1.222a2.17 2.17 0 0 1 .728-.796 3.54 3.54 0 0 1 1.045-.454 7.972 7.972 0 0 1 1.239-.216c.507-.053.917-.102 1.227-.148.311-.049.536-.12.676-.216a.475.475 0 0 0 .21-.42v-.034c0-.36-.113-.638-.34-.835-.224-.197-.542-.296-.955-.296-.436 0-.782.097-1.04.29-.257.19-.428.428-.511.716l-2.239-.182a3.04 3.04 0 0 1 .671-1.375c.333-.39.763-.69 1.289-.898.531-.212 1.144-.318 1.841-.318.485 0 .949.057 1.392.17.447.114.843.29 1.188.529.348.239.623.545.824.92.201.372.301.817.301 1.336V31h-2.296v-1.21h-.068c-.14.273-.327.513-.562.721a2.603 2.603 0 0 1-.847.483c-.329.114-.71.17-1.142.17Zm.693-1.67c.356 0 .671-.07.944-.21a1.68 1.68 0 0 0 .642-.58c.155-.243.233-.517.233-.824v-.927a1.28 1.28 0 0 1-.313.137 5.806 5.806 0 0 1-.437.108c-.163.03-.326.059-.489.085l-.443.063a3.009 3.009 0 0 0-.745.198 1.19 1.19 0 0 0-.494.37.902.902 0 0 0-.176.568c0 .33.119.581.358.756.242.17.549.255.92.255Zm6.1 1.505v-8.727h2.42V31h-2.42Zm1.216-9.852c-.36 0-.669-.12-.926-.358a1.16 1.16 0 0 1-.381-.87c0-.333.127-.619.381-.858.257-.242.566-.363.926-.363.36 0 .666.121.92.363.258.24.387.525.387.858 0 .338-.129.627-.387.87-.254.238-.56.358-.92.358Zm5.564-1.784V31h-2.421V19.364h2.421Zm9.585 11.806c-.883 0-1.646-.187-2.29-.562a3.854 3.854 0 0 1-1.483-1.58c-.348-.678-.523-1.464-.523-2.357 0-.902.175-1.69.523-2.364a3.808 3.808 0 0 1 1.483-1.58c.644-.378 1.407-.568 2.29-.568.882 0 1.644.19 2.284.568.644.375 1.14.902 1.489 1.58.348.674.522 1.462.522 2.364 0 .893-.174 1.68-.522 2.357a3.842 3.842 0 0 1-1.489 1.58c-.64.375-1.402.563-2.284.563Zm.011-1.875c.402 0 .737-.113 1.006-.34.269-.231.471-.546.608-.944.14-.397.21-.85.21-1.358 0-.507-.07-.96-.21-1.357-.137-.398-.339-.713-.608-.944-.269-.23-.604-.346-1.006-.346-.405 0-.746.115-1.023.346-.272.231-.479.546-.619.944a4.18 4.18 0 0 0-.204 1.357c0 .508.068.96.204 1.358.14.398.347.713.619.944.277.227.618.34 1.023.34Zm11.455-2.01v-5.012h2.42V31h-2.324v-1.585h-.091a2.573 2.573 0 0 1-.983 1.233c-.454.31-1.009.466-1.664.466-.584 0-1.097-.133-1.54-.398a2.735 2.735 0 0 1-1.04-1.13c-.246-.49-.371-1.075-.375-1.756v-5.557h2.421v5.125c.003.515.142.922.414 1.221.273.3.639.45 1.097.45.292 0 .564-.067.818-.2.254-.136.458-.337.614-.602.159-.265.237-.593.233-.983Zm12.701-5.012v1.818h-5.255v-1.818h5.255Zm-4.062-2.091h2.42v8.136c0 .224.035.398.103.523a.564.564 0 0 0 .284.256c.125.049.269.073.432.073.113 0 .227-.009.341-.028l.261-.051.381 1.801a6.87 6.87 0 0 1-.512.13c-.22.054-.487.086-.801.097-.583.023-1.095-.055-1.534-.233a2.138 2.138 0 0 1-1.017-.83c-.243-.374-.362-.848-.358-1.42v-8.454Zm9.523 10.989c-.898 0-1.671-.182-2.319-.546a3.737 3.737 0 0 1-1.488-1.557c-.349-.674-.523-1.471-.523-2.392 0-.898.174-1.685.523-2.363a3.863 3.863 0 0 1 1.471-1.586c.637-.378 1.383-.568 2.239-.568.576 0 1.112.093 1.608.279.5.181.936.456 1.307.823.375.368.667.83.875 1.387.208.553.312 1.2.312 1.943v.665h-7.369v-1.5h5.091a1.86 1.86 0 0 0-.227-.927 1.632 1.632 0 0 0-.631-.63 1.799 1.799 0 0 0-.926-.233 1.86 1.86 0 0 0-.977.256c-.281.166-.5.392-.659.676-.16.28-.241.593-.245.937v1.426c0 .432.08.805.239 1.12.163.314.392.556.687.727.296.17.646.256 1.051.256.269 0 .516-.038.739-.114a1.53 1.53 0 0 0 .574-.34c.159-.152.28-.338.364-.558l2.238.148a3.044 3.044 0 0 1-.699 1.41c-.348.397-.799.707-1.352.93-.549.22-1.184.33-1.903.33Zm8.005-11.807V31h-2.42V19.364h2.42Zm5.917 11.806c-.898 0-1.671-.181-2.319-.545a3.731 3.731 0 0 1-1.488-1.557c-.349-.674-.523-1.471-.523-2.392 0-.898.174-1.685.523-2.363a3.863 3.863 0 0 1 1.471-1.586c.637-.378 1.383-.568 2.239-.568.576 0 1.112.093 1.608.279.5.181.936.456 1.307.823.375.368.666.83.875 1.387.208.553.312 1.2.312 1.943v.665h-7.369v-1.5h5.091a1.86 1.86 0 0 0-.227-.927 1.632 1.632 0 0 0-.631-.63 1.799 1.799 0 0 0-.926-.233 1.86 1.86 0 0 0-.978.256c-.28.166-.5.392-.659.676-.159.28-.24.593-.244.937v1.426c0 .432.08.805.239 1.12.163.314.392.556.687.727.296.17.646.256 1.051.256.269 0 .515-.038.739-.114.223-.076.415-.19.574-.34.159-.152.28-.338.363-.558l2.239.148a3.053 3.053 0 0 1-.699 1.41c-.348.397-.799.707-1.352.93-.549.22-1.184.33-1.903.33Zm10.278-8.897v1.818h-5.386v-1.818h5.386ZM209.678 31v-9.358c0-.633.123-1.157.369-1.574.25-.417.591-.729 1.023-.937.431-.209.922-.313 1.471-.313.371 0 .71.029 1.017.085.311.057.542.108.693.154l-.431 1.818a3.063 3.063 0 0 0-.353-.085 2.191 2.191 0 0 0-.42-.04c-.356 0-.604.083-.744.25-.141.163-.211.392-.211.688V31h-2.414Zm9.262.17c-.882 0-1.645-.187-2.289-.562a3.84 3.84 0 0 1-1.483-1.58c-.349-.678-.523-1.464-.523-2.357 0-.902.174-1.69.523-2.364a3.795 3.795 0 0 1 1.483-1.58c.644-.378 1.407-.568 2.289-.568.883 0 1.644.19 2.284.568a3.79 3.79 0 0 1 1.489 1.58c.349.674.523 1.462.523 2.364 0 .893-.174 1.68-.523 2.357a3.835 3.835 0 0 1-1.489 1.58c-.64.375-1.401.563-2.284.563Zm.012-1.875c.401 0 .736-.113 1.005-.34.269-.231.472-.546.608-.944.14-.397.211-.85.211-1.358 0-.507-.071-.96-.211-1.357-.136-.398-.339-.713-.608-.944-.269-.23-.604-.346-1.005-.346-.406 0-.747.115-1.023.346-.273.231-.479.546-.619.944-.137.397-.205.85-.205 1.357 0 .508.068.96.205 1.358.14.398.346.713.619.944.276.227.617.34 1.023.34Zm8.278-3.34V31h-2.42v-8.727h2.306v1.54h.103c.193-.508.517-.91.971-1.205.455-.3 1.006-.449 1.654-.449.606 0 1.134.133 1.585.398.451.265.801.644 1.051 1.136.25.489.375 1.072.375 1.75V31h-2.42v-5.125c.003-.534-.133-.95-.409-1.25-.277-.303-.658-.454-1.142-.454-.326 0-.614.07-.864.21-.246.14-.44.344-.58.613-.136.265-.206.585-.21.96Zm11.51 5.216c-.898 0-1.67-.182-2.318-.546a3.74 3.74 0 0 1-1.489-1.557c-.348-.674-.522-1.471-.522-2.392 0-.898.174-1.685.522-2.363a3.866 3.866 0 0 1 1.472-1.586c.636-.378 1.382-.568 2.238-.568.576 0 1.112.093 1.608.279.5.181.936.456 1.307.823.375.368.667.83.875 1.387.209.553.313 1.2.313 1.943v.665h-7.37v-1.5h5.091a1.85 1.85 0 0 0-.227-.927 1.625 1.625 0 0 0-.631-.63 1.796 1.796 0 0 0-.926-.233c-.367 0-.693.085-.977.256-.28.166-.5.392-.659.676-.159.28-.241.593-.244.937v1.426c0 .432.079.805.238 1.12.163.314.392.556.688.727.295.17.646.256 1.051.256.269 0 .515-.038.738-.114a1.48 1.48 0 0 0 .938-.898l2.239.148a3.063 3.063 0 0 1-.699 1.41c-.349.397-.8.707-1.353.93-.549.22-1.183.33-1.903.33Z"/>
    <rect width="174" height="35" x="101.5" y="39" fill="#fff" rx="8"/>
  </g>
  <defs>
    <clipPath id="b">
      <path fill="#fff" d="M20.5 16h49v58h-49z"/>
    </clipPath>
    <filter id="a" width="295" height="98" x=".5" y="0" color-interpolation-filters="sRGB" filterUnits="userSpaceOnUse">
      <feFlood flood-opacity="0" result="BackgroundImageFix"/>
      <feColorMatrix in="SourceAlpha" result="hardAlpha" values="0 0 0 0 0 0 0 0 0 0 0 0 0 0 0 0 0 0 127 0"/>
      <feOffset dy="4"/>
      <feGaussianBlur stdDeviation="2"/>
      <feComposite in2="hardAlpha" operator="out"/>
      <feColorMatrix values="0 0 0 0 0 0 0 0 0 0 0 0 0 0 0 0 0 0 0.25 0"/>
      <feBlend in2="BackgroundImageFix" result="effect1_dropShadow_93_85"/>
      <feBlend in="SourceGraphic" in2="effect1_dropShadow_93_85" result="shape"/>
    </filter>
  </defs>
</svg>
