<svg xmlns="http://www.w3.org/2000/svg" width="100" height="100" fill="none" viewBox="0 0 100 100">
  <circle cx="50" cy="50" r="47.5" fill="#EEF9F1" stroke="#5CC971" stroke-width="5"/>
  <path fill="#3D8726" d="M25.307 37.41c1.197 0 2.348.2 3.454.601a7.956 7.956 0 0 1 2.978 1.92c.878.88 1.572 2.046 2.08 3.5.514 1.448.776 3.224.783 5.33 0 1.978-.223 3.743-.67 5.296-.44 1.545-1.072 2.86-1.898 3.943-.826 1.083-1.822 1.91-2.988 2.477-1.167.56-2.47.841-3.91.841-1.553 0-2.924-.3-4.113-.898-1.19-.606-2.148-1.428-2.875-2.465a7.678 7.678 0 0 1-1.307-3.523h4.852c.19.848.587 1.507 1.193 1.977.606.462 1.356.693 2.25.693 1.515 0 2.667-.659 3.455-1.977.788-1.326 1.185-3.14 1.193-5.443h-.159a5.571 5.571 0 0 1-1.41 1.761c-.59.485-1.268.86-2.033 1.125a7.276 7.276 0 0 1-2.42.398c-1.372 0-2.595-.322-3.671-.966a6.93 6.93 0 0 1-2.546-2.66c-.62-1.128-.931-2.416-.931-3.863-.008-1.56.352-2.95 1.08-4.17.727-1.22 1.742-2.174 3.045-2.864 1.31-.697 2.833-1.041 4.568-1.034Zm.034 3.863c-.765 0-1.447.181-2.046.545a4.024 4.024 0 0 0-1.409 1.466c-.34.614-.507 1.3-.5 2.057 0 .765.167 1.454.5 2.068a3.99 3.99 0 0 0 1.387 1.455c.59.356 1.265.534 2.023.534a3.896 3.896 0 0 0 2.84-1.194c.364-.378.648-.814.853-1.306a4.046 4.046 0 0 0 .306-1.569 4.187 4.187 0 0 0-.522-2.022 3.995 3.995 0 0 0-1.41-1.477 3.759 3.759 0 0 0-2.022-.557Zm21.273 20.045c-1.697 0-3.209-.291-4.534-.875-1.319-.59-2.36-1.401-3.125-2.432-.758-1.038-1.148-2.235-1.17-3.59h4.954c.03.568.216 1.068.556 1.5.349.424.811.753 1.387.988s1.223.352 1.943.352c.75 0 1.413-.132 1.989-.397.575-.265 1.026-.633 1.352-1.103a2.78 2.78 0 0 0 .489-1.625c0-.62-.175-1.17-.523-1.647-.341-.485-.834-.864-1.477-1.137-.637-.272-1.394-.409-2.273-.409h-2.17V47.33h2.17c.742 0 1.398-.13 1.966-.387.575-.257 1.022-.613 1.34-1.068.319-.462.478-1 .478-1.614 0-.583-.14-1.094-.42-1.534a2.776 2.776 0 0 0-1.16-1.045c-.492-.25-1.068-.375-1.727-.375a4.52 4.52 0 0 0-1.83.363 3.198 3.198 0 0 0-1.329 1.012c-.333.44-.511.954-.534 1.545H38.25c.023-1.34.405-2.522 1.148-3.545.742-1.023 1.742-1.822 3-2.398 1.265-.583 2.693-.875 4.284-.875 1.606 0 3.011.292 4.216.875 1.204.583 2.14 1.371 2.806 2.364.675.985 1.008 2.09 1 3.318.008 1.303-.397 2.39-1.215 3.261-.811.872-1.868 1.425-3.17 1.66v.181c1.711.22 3.014.815 3.908 1.784.902.962 1.349 2.167 1.341 3.614.008 1.326-.375 2.504-1.148 3.534-.765 1.03-1.822 1.84-3.17 2.432-1.349.59-2.894.886-4.636.886Zm25.23-4.682V55.41c0-.932.197-1.788.59-2.568a4.684 4.684 0 0 1 1.74-1.886c.764-.478 1.696-.716 2.795-.716 1.113 0 2.049.235 2.807.704a4.505 4.505 0 0 1 1.727 1.887c.394.78.59 1.64.59 2.58v1.226c0 .932-.196 1.792-.59 2.58a4.599 4.599 0 0 1-1.739 1.875c-.765.477-1.697.716-2.795.716-1.114 0-2.05-.239-2.807-.716a4.623 4.623 0 0 1-1.727-1.875 5.686 5.686 0 0 1-.591-2.58Zm3.307-1.227v1.227c0 .538.128 1.046.386 1.523.265.477.742.716 1.432.716s1.159-.235 1.409-.705c.257-.47.386-.98.386-1.534V55.41c0-.553-.121-1.068-.363-1.545-.243-.478-.72-.716-1.432-.716-.682 0-1.156.238-1.42.716a3.13 3.13 0 0 0-.398 1.545ZM59.9 43.32v-1.23c0-.94.2-1.8.602-2.58a4.685 4.685 0 0 1 1.739-1.886c.765-.47 1.689-.705 2.772-.705 1.121 0 2.06.235 2.818.705a4.605 4.605 0 0 1 1.728 1.886c.394.78.59 1.64.59 2.58v1.227c0 .94-.2 1.8-.602 2.58a4.6 4.6 0 0 1-1.738 1.875c-.758.462-1.69.693-2.796.693-1.106 0-2.041-.235-2.807-.705a4.72 4.72 0 0 1-1.727-1.875 5.708 5.708 0 0 1-.58-2.568Zm3.33-1.228v1.227c0 .553.128 1.065.386 1.534.265.47.73.705 1.397.705.697 0 1.17-.235 1.42-.705a3.14 3.14 0 0 0 .387-1.534v-1.227c0-.553-.121-1.068-.364-1.546-.242-.477-.723-.715-1.443-.715-.674 0-1.14.242-1.397.727a3.224 3.224 0 0 0-.387 1.534ZM61.4 61l16-23.273h2.977L64.378 61H61.4Z"/>
</svg>
